<svg xmlns="http://www.w3.org/2000/svg" viewBox="0 0 380 500" preserveAspectRatio="xMidYMid slice" font-family="Arial,Helvetica,sans-serif">
  <defs>
    <linearGradient id="bg" x1="0" y1="0" x2="1" y2="1"><stop offset="0" stop-color="#1A2C66"/><stop offset="1" stop-color="#080E30"/></linearGradient>
    <linearGradient id="gold" x1="0" y1="0" x2="1" y2="1"><stop offset="0" stop-color="#F3D889"/><stop offset="1" stop-color="#C9A227"/></linearGradient>
    <radialGradient id="glow" cx="0.3" cy="0.24" r="0.8"><stop offset="0" stop-color="#E9C65A" stop-opacity="0.18"/><stop offset="1" stop-color="#E9C65A" stop-opacity="0"/></radialGradient>
  </defs>
  <rect width="380" height="500" fill="url(#bg)"/>
  <rect width="380" height="500" fill="url(#glow)"/>
  <g stroke="#ffffff" stroke-opacity="0.05" stroke-width="1"><path d="M0 130h380M0 260h380M130 0v500M255 0v500"/></g>
  <!-- lupa sobre documento -->
  <g transform="translate(200,180)" fill="none" opacity="0.92">
    <rect x="-64" y="-52" width="86" height="116" rx="8" stroke="#ffffff" stroke-opacity="0.35" stroke-width="6"/>
    <path d="M-48 -26h54M-48 -6h54M-48 14h34" stroke="#ffffff" stroke-opacity="0.3" stroke-width="5" stroke-linecap="round"/>
    <circle cx="34" cy="30" r="30" stroke="url(#gold)" stroke-width="8"/>
    <line x1="56" y1="52" x2="82" y2="78" stroke="url(#gold)" stroke-width="9" stroke-linecap="round"/>
    <path d="M22 30l8 8 16-18" stroke="url(#gold)" stroke-width="6" stroke-linecap="round" stroke-linejoin="round"/>
  </g>
  <text x="34" y="56" font-size="12" font-weight="700" letter-spacing="3" fill="#E9C65A">CURSO · CONTRATOS</text>
  <text x="34" y="404" font-size="40" font-weight="800" fill="url(#gold)">FISCALIZE</text>
  <text x="34" y="440" font-size="26" font-weight="800" fill="#ffffff">CONTRATOS COM</text>
  <text x="34" y="468" font-size="26" font-weight="800" fill="#ffffff">SEGURANÇA</text>
  <text x="346" y="56" text-anchor="end" font-size="11" font-weight="700" letter-spacing="1.5" fill="#ffffff" fill-opacity="0.55">GRUPO CLG</text>
</svg>
