<svg xmlns="http://www.w3.org/2000/svg" viewBox="0 0 380 500" preserveAspectRatio="xMidYMid slice" font-family="Arial,Helvetica,sans-serif">
  <defs>
    <linearGradient id="bg" x1="0" y1="0" x2="1" y2="1"><stop offset="0" stop-color="#163A6B"/><stop offset="1" stop-color="#06121F"/></linearGradient>
    <linearGradient id="gold" x1="0" y1="0" x2="1" y2="1"><stop offset="0" stop-color="#F3D889"/><stop offset="1" stop-color="#C9A227"/></linearGradient>
    <radialGradient id="glow" cx="0.7" cy="0.28" r="0.8"><stop offset="0" stop-color="#E9C65A" stop-opacity="0.2"/><stop offset="1" stop-color="#E9C65A" stop-opacity="0"/></radialGradient>
  </defs>
  <rect width="380" height="500" fill="url(#bg)"/>
  <rect width="380" height="500" fill="url(#glow)"/>
  <g stroke="#ffffff" stroke-opacity="0.05" stroke-width="1"><path d="M0 130h380M0 260h380M130 0v500M255 0v500"/></g>
  <!-- caixa/pacote (fornecedor) -->
  <g transform="translate(190,175)" stroke="url(#gold)" stroke-width="7" stroke-linejoin="round" fill="none" opacity="0.9">
    <path d="M-58 -34 L0 -64 L58 -34 L58 44 L0 74 L-58 44 Z"/>
    <path d="M-58 -34 L0 -4 L58 -34"/>
    <path d="M0 -4 L0 74"/>
  </g>
  <text x="34" y="56" font-size="12" font-weight="700" letter-spacing="3" fill="#E9C65A">WORKSHOP · FORNECEDORES</text>
  <text x="34" y="392" font-size="36" font-weight="800" fill="#ffffff">LICITAÇÕES</text>
  <text x="34" y="428" font-size="27" font-weight="800" fill="url(#gold)">PARA QUEM</text>
  <text x="34" y="458" font-size="27" font-weight="800" fill="url(#gold)">FORNECE</text>
  <rect x="34" y="474" width="60" height="4" rx="2" fill="url(#gold)"/>
  <text x="346" y="56" text-anchor="end" font-size="11" font-weight="700" letter-spacing="1.5" fill="#ffffff" fill-opacity="0.55">GRUPO CLG</text>
</svg>
